<?xml version="1.0" encoding="UTF-8" standalone="no"?>
<svg
   width="16"
   height="16"
   viewBox="0 0 16 16"
   version="1.1"
   id="svg1"
   sodipodi:docname="spnbank-file.svg"
   xml:space="preserve"
   inkscape:version="1.4.2 (f4327f4, 2025-05-13)"
   xmlns:inkscape="http://www.inkscape.org/namespaces/inkscape"
   xmlns:sodipodi="http://sodipodi.sourceforge.net/DTD/sodipodi-0.dtd"
   xmlns="http://www.w3.org/2000/svg"
   xmlns:svg="http://www.w3.org/2000/svg"><defs
     id="defs1" /><sodipodi:namedview
     id="namedview1"
     pagecolor="#ffffff"
     bordercolor="#666666"
     borderopacity="1.0"
     inkscape:showpageshadow="2"
     inkscape:pageopacity="0.0"
     inkscape:pagecheckerboard="0"
     inkscape:deskcolor="#d1d1d1"
     inkscape:zoom="56.71875"
     inkscape:cx="7.2550964"
     inkscape:cy="8.4892562"
     inkscape:window-width="3840"
     inkscape:window-height="2054"
     inkscape:window-x="-11"
     inkscape:window-y="-11"
     inkscape:window-maximized="1"
     inkscape:current-layer="svg1" /><!-- Simple representation for .spnbank files in dark theme --><path
     style="fill:#ffffff;stroke-width:0.0160649;fill-opacity:1"
     d="m 7.884105,14.167152 c -0.51839,-0.0257 -1.00327,-0.1914 -1.46873,-0.50192 -0.3371,-0.22489 -0.66389,-0.53439 -0.94773,-0.89761 -0.65158,-0.83381 -1.11365,-1.96178 -1.32196,-3.2271304 -0.049,-0.29769 -0.0885,-0.64615 -0.1043,-0.9202 -0.002,-0.0262 -0.003,-0.0525 -0.004,-0.0585 l -10e-4,-0.0109 -1.18662,-6.4e-4 -1.18663,-6.5e-4 -0.32331,-0.88293 c -0.17782,-0.48561 -0.32402,-0.88553 -0.32488,-0.88871 l -0.002,-0.006 1.54316,-6.4e-4 1.54315,-6.5e-4 0.003,-0.0206 c 0.002,-0.0113 0.008,-0.0576 0.0148,-0.10282 0.006,-0.0452 0.016,-0.10972 0.0214,-0.14329 l 0.01,-0.061 h -1.66983 -1.66982 l -0.15447,-0.41576 -0.15446,-0.41576 1.91457,-6.5e-4 1.91457,-6.4e-4 0.004,-0.0135 c 0.0331,-0.11831 0.0557,-0.19606 0.0779,-0.26797 0.28502,-0.9235 0.71617,-1.7262 1.24876,-2.32491 0.12441,-0.13987 0.27336,-0.28695 0.40631,-0.40124 0.4901,-0.42132 1.03536,-0.67684 1.59802,-0.74887 0.45437,-0.0582 0.91017,0.002 1.34482,0.17648 0.32196,0.12951 0.63213,0.32097 0.92048,0.56819 0.10432,0.0894 0.2355,0.21534 0.33138,0.31804 0.28181,0.30186 0.53338,0.65219 0.75586,1.05258 0.2682,0.48266 0.49577,1.05227 0.65132,1.63027 l 0.003,0.0109 1.91463,6.4e-4 1.91463,6.5e-4 -0.15443,0.41576 -0.15444,0.41576 h -1.66985 -1.66986 l 0.009,0.0533 c 0.005,0.0293 0.0155,0.10192 0.024,0.1613 0.009,0.0594 0.016,0.1094 0.0166,0.11117 9.2e-4,0.003 0.31199,0.003 1.54374,0.003 h 1.54259 l -0.002,0.006 c -8.7e-4,0.003 -0.14707,0.4031 -0.3249,0.88871 l -0.32331,0.88293 -1.18666,6.5e-4 -1.18666,6.5e-4 -0.001,0.008 c -7e-4,0.005 -0.002,0.0222 -0.003,0.0392 -0.005,0.0926 -0.0216,0.29502 -0.036,0.42928 -0.14842,1.3775004 -0.59346,2.6358304 -1.26107,3.5656004 -0.16605,0.23126 -0.33086,0.42515 -0.5218,0.61388 -0.18794,0.18576 -0.36673,0.33228 -0.56952,0.4667 -0.44429,0.2945 -0.91569,0.45867 -1.40932,0.49081 -0.0558,0.004 -0.22376,0.005 -0.2776,0.002 z m 0.24675,-0.43975 c 0.53584,-0.0308 1.06538,-0.26458 1.53967,-0.67971 0.12853,-0.1125 0.27551,-0.26185 0.39451,-0.40088 0.61105,-0.71393 1.06878,-1.72507 1.30088,-2.8737001 0.0996,-0.4929803 0.15549,-0.9892503 0.17073,-1.5165303 0.003,-0.11249 0.003,-0.39902 0,-0.51151 -0.0154,-0.53453 -0.0726,-1.03684 -0.17507,-1.53838 -0.1652,-0.80873 -0.44521,-1.55558 -0.81672,-2.1784 -0.17142,-0.28738 -0.35866,-0.5426 -0.56551,-0.7708 -0.0506,-0.0558 -0.17088,-0.17741 -0.22786,-0.23032 -0.63556,-0.59032 -1.35814,-0.84328 -2.08844,-0.7311 -0.45428,0.0698 -0.90068,0.28653 -1.30704,0.63465 -0.13567,0.11623 -0.29003,0.27109 -0.4141,0.41545 -0.74958,0.87216 -1.26107,2.17315 -1.42477,3.62393 -0.026,0.23036 -0.0405,0.42332 -0.0522,0.69657 -0.004,0.10294 -0.004,0.56537 0,0.66831 0.0198,0.45883 0.0594,0.83679 0.12921,1.23121 0.23218,1.3121604 0.74855,2.4495604 1.45864,3.2129904 0.11619,0.12492 0.25716,0.25652 0.38413,0.35861 0.47129,0.37894 0.98031,0.57894 1.51018,0.59337 0.0406,0.001 0.13146,-7.5e-4 0.18378,-0.004 z M 6.418975,9.6548716 v -3.17829 h -0.21538 -0.21539 l -0.13247,-0.41897 -0.13247,-0.41897 h 0.34786 0.34785 l 1e-5,-0.59955 c 2e-5,-0.59736 7.1e-4,-0.65328 0.009,-0.73258 0.0213,-0.20261 0.0807,-0.37781 0.17645,-0.52051 0.10008,-0.1492 0.25529,-0.29204 0.41981,-0.38634 0.18762,-0.10755 0.45378,-0.18807 0.72099,-0.21813 0.0927,-0.0104 0.1219,-0.0118 0.25704,-0.0118 0.15627,0 0.21858,0.004 0.34546,0.022 0.2874,0.0409 0.55216,0.13991 0.77009,0.28794 0.27734,0.18837 0.42685,0.47973 0.45227,0.88139 0.002,0.0292 0.003,1.35671 0.003,4.25721 v 4.2148004 h -0.42154 -0.42155 v -3.1782904 -3.17829 h -0.73898 -0.73899 v 3.17829 3.1782904 h -0.4164 -0.41641 z m 2.31077,-4.60807 c -2e-5,-0.64487 6.1e-4,-0.6156 -0.0144,-0.66504 -0.008,-0.0272 -0.0246,-0.0604 -0.0425,-0.0867 -0.017,-0.0249 -0.0637,-0.0723 -0.0905,-0.092 -0.0763,-0.0559 -0.18248,-0.10362 -0.29418,-0.13221 -0.10616,-0.0272 -0.22365,-0.0384 -0.35096,-0.0334 -0.18241,0.007 -0.32999,0.0414 -0.45801,0.10644 -0.13439,0.0683 -0.20842,0.16134 -0.22467,0.28234 -0.002,0.0136 -0.003,0.21413 -0.003,0.61625 v 0.59615 h 0.73899 0.73898 z"
     id="path1" /></svg>
