<?xml version="1.0" encoding="UTF-8" standalone="no"?>
<svg
   width="24"
   height="24"
   viewBox="0 0 24 24"
   version="1.1"
   id="svg1"
   xmlns="http://www.w3.org/2000/svg"
   xmlns:svg="http://www.w3.org/2000/svg">
  <defs id="defs1" />
  <!-- Audiofab logo - scaled and centered version of spnbank-file.svg -->
  <path
     style="fill:currentColor;stroke-width:0.024"
     d="m 11.826158,21.250728 c -0.777585,-0.03855 -1.504905,-0.2871 -2.203095,-0.75288 -0.50565,-0.337335 -0.995835,-0.801585 -1.421595,-1.346415 -0.97737,-1.250715 -1.670475,-2.94267 -1.982940,-4.840695 -0.07350,-0.446535 -0.13275,-0.969225 -0.15645,-1.3803 -0.00300,-0.0393 -0.00450,-0.078750 -0.00600,-0.087750 l -0.00150,-0.016350 -1.77993,-0.00096 -1.779945,-0.0009750 -0.484965,-1.324395 c -0.26673,-0.728415 -0.48603,-1.328295 -0.48732,-1.333065 l -0.00300,-0.009 2.31474,-0.00096 2.314725,-0.0009750 0.00450,-0.0309 c 0.00300,-0.016950 0.01200,-0.0864 0.02220,-0.15423 0.00900,-0.0678 0.02400,-0.16458 0.03210,-0.214935 l 0.01500,-0.09150 h -2.504745 -2.50473 l -0.231705,-0.62364 -0.23169,-0.62364 2.871855,-0.0009750 2.871855,-0.00096 0.00600,-0.02025 c 0.04965,-0.177465 0.08355,-0.29409 0.11685,-0.401955 0.42753,-1.38525 1.074255,-2.5893 1.87314,-3.486865 0.186615,-0.209805 0.41004,-0.430425 0.609465,-0.60186 0.73515,-0.63198 1.55304,-1.01526 2.39703,-1.123305 0.681555,-0.0873 1.365255,0.003 2.01723,0.26472 0.48294,0.194265 0.948195,0.481455 1.38072,0.852285 0.15648,0.1341 0.35325,0.32301 0.49707,0.47706 0.422715,0.45279 0.80007,0.978285 1.13379,1.57887 0.40230,0.72399 0.743655,1.578405 0.97698,2.445405 l 0.00450,0.016350 2.871945,0.00096 2.871945,0.0009750 -0.231645,0.62364 -0.23166,0.62364 h -2.504775 -2.50479 l 0.01350,0.079950 c 0.00750,0.043950 0.02325,0.15288 0.03600,0.24195 0.01350,0.0891 0.02400,0.1641 0.02490,0.166755 0.00138,0.00450 0.467985,0.00450 2.31561,0.00450 h 2.313885 l -0.00300,0.009 c -0.001305,0.00450 -0.220605,0.60465 -0.48735,1.333065 l -0.484965,1.324395 -1.77999,0.0009750 -1.77999,0.0009750 -0.00150,0.012 c -0.001050,0.0075 -0.00300,0.0333 -0.00450,0.0588 -0.00750,0.1389 -0.03240,0.442530 -0.05400,0.64392 -0.22263,2.066250 -0.89019,3.953700 -1.891605,5.348400 -0.249075,0.34689 -0.49629,0.637725 -0.78270,0.92082 -0.28191,0.27864 -0.550095,0.49842 -0.85428,0.700050 -0.666435,0.44175 -1.373535,0.688005 -2.11398,0.736215 -0.0837,0.006 -0.33564,0.0075 -0.4164,0.003 z m 0.370125,-0.659625 c 0.80376,-0.0462 1.59807,-0.396870 2.309505,-1.019565 0.192795,-0.168750 0.413265,-0.392775 0.591765,-0.60132 0.916575,-1.070895 1.60317,-2.587605 1.95132,-4.310550 0.14940,-0.739470 0.233235,-1.483875 0.256095,-2.274795 0.00450,-0.168735 0.00450,-0.59853 0,-0.767265 -0.02310,-0.801795 -0.10890,-1.55526 -0.262605,-2.30757 -0.24780,-1.213095 -0.667815,-2.333370 -1.22508,-3.2676 -0.25713,-0.43107 -0.53799,-0.8139 -0.848265,-1.1562 -0.0759,-0.0837 -0.25632,-0.266115 -0.34179,-0.34548 -0.95334,-0.88548 -2.03721,-1.26492 -3.13266,-1.09665 -0.68142,0.1047 -1.35102,0.429795 -1.96056,0.951975 -0.203505,0.174345 -0.435045,0.406635 -0.62115,0.623175 -1.12437,1.30824 -1.891605,3.259725 -2.137155,5.435895 -0.0390,0.34554 -0.06075,0.63498 -0.0783,1.044855 -0.00600,0.15441 -0.00600,0.848055 0,1.002465 0.0297,0.688245 0.0891,1.255185 0.193815,1.846815 0.34827,1.968240 1.122825,3.674340 2.18796,5.119485 0.174285,0.18738 0.38574,0.38478 0.576195,0.537915 0.706935,0.56841 1.470465,0.86841 2.26527,0.890055 0.0609,0.0015 0.19719,-0.0011250 0.27567,-0.006 z M 9.628463,14.482308 v -4.767435 h -0.32307 -0.323085 l -0.198705,-0.628455 -0.198705,-0.628455 h 0.52179 0.521775 l 0.000015,-0.899325 c 0.000030,-0.89604 0.001065,-0.97992 0.01350,-1.09887 0.031950,-0.303915 0.121050,-0.566715 0.264675,-0.780765 0.15012,-0.2238 0.382935,-0.43806 0.629715,-0.57951 0.28143,-0.161325 0.68067,-0.282105 1.081485,-0.327195 0.139050,-0.0156 0.18285,-0.0177 0.38556,-0.0177 0.234405,0 0.32787,0.006 0.51819,0.033 0.43110,0.061350 0.82824,0.209865 1.155135,0.43191 0.41601,0.282555 0.640275,0.719595 0.678405,1.322085 0.00300,0.0438 0.00450,2.035065 0.00450,6.38581 v 6.32220 h -0.63231 -0.632325 v -4.76744 -4.767435 h -1.10847 -1.108485 v 4.767435 4.76744 h -0.6246 -0.624615 z m 3.466155,-6.912105 c -0.000030,-0.967305 0.000915,-0.9234 -0.0216,-0.99756 -0.012,-0.0408 -0.0369,-0.0906 -0.063750,-0.130050 -0.0255,-0.037350 -0.095550,-0.108450 -0.135750,-0.138 -0.114450,-0.083850 -0.27372,-0.15543 -0.44127,-0.198315 -0.15924,-0.0408 -0.335475,-0.0576 -0.52644,-0.0501 -0.273615,0.0105 -0.494985,0.0621 -0.687015,0.15966 -0.201585,0.102450 -0.31263,0.24201 -0.337005,0.42351 -0.00300,0.0204 -0.00450,0.321195 -0.00450,0.924375 v 0.894225 h 1.108485 1.10847 z"
     id="path1" />
</svg>

